<?xml version="1.0" encoding="utf-8"?>
<svg viewBox="0 0 54 50" xmlns="http://www.w3.org/2000/svg">
  <g id="logo_quad" stroke="none" stroke-width="1" fill="none" fill-rule="evenodd" transform="matrix(1, 0, 0, 1, 0, 1.7763568394002505e-15)">
    <g id="Group-3">
      <mask id="mask-2" fill="white">
        <path d="M0,49.808 L53.087,49.808 L53.087,0 L0,0 L0,49.808 Z M46.849,27.682 C45.221,33.665 42.842,32.577 38.209,38.234 C33.576,43.891 24.561,44.979 18.3,44.652 C12.04,44.326 10.036,37.581 10.036,33.665 C10.036,29.748 8.033,26.594 6.655,24.2 C5.278,21.807 5.153,19.631 7.657,16.15 C10.161,12.669 17.549,17.564 17.549,17.564 C21.346,19.649 24.185,18.108 26.063,13.322 C27.942,8.535 28.317,5.706 37.583,5.054 C46.849,4.401 48.477,21.698 46.849,27.682 L46.849,27.682 Z"/>
      </mask>
      <g id="Clip-2"/>
      <polygon id="Fill-1" fill="#1A1919" mask="url(#mask-2)" points="-1 -1 54.087 -1 54.087 50.808 -1 50.808"/>
    </g>
    <g id="Group-6" transform="translate(5.681790, 5.036003)">
      <mask id="mask-4" fill="white">
        <path d="M41.1672102,22.6459967 C39.5392102,28.6289967 37.1602102,27.5409967 32.5272102,33.1979967 C27.8942102,38.8549967 18.8792102,39.9429967 12.6182102,39.6159967 C6.35821024,39.2899967 4.35421024,32.5449967 4.35421024,28.6289967 C4.35421024,24.7119967 2.35121024,21.5579967 0.973210239,19.1639967 C-0.403789761,16.7709967 -0.528789761,14.5949967 1.97521024,11.1139967 C4.47921024,7.63299668 11.8672102,12.5279967 11.8672102,12.5279967 C15.6642102,14.6129967 18.5032102,13.0719967 20.3812102,8.28599668 C22.2602102,3.49899668 22.6352102,0.669996675 31.9012102,0.0179966753 C41.1672102,-0.635003325 42.7952102,16.6619967 41.1672102,22.6459967 L41.1672102,22.6459967 Z"/>
      </mask>
      <g id="Clip-5"/>
      <polygon id="Fill-4" fill="#FFFFFF" mask="url(#mask-4)" points="-1.52878976 -1.63500332 43.7952102 -1.63500332 43.7952102 40.9429967 -1.52878976 40.9429967"/>
    </g>
  </g>
</svg>