<?xml version="1.0" encoding="UTF-8"?>
<svg width="230px" height="51px" viewBox="0 0 230 51" version="1.1" xmlns="http://www.w3.org/2000/svg" xmlns:xlink="http://www.w3.org/1999/xlink">
    <title>Untitled</title>
    <g id="Page-1" stroke="none" stroke-width="1" fill="none" fill-rule="evenodd">
        <g id="inabita_logo-copy" transform="translate(0.369000, 0.615400)" fill="#1A1919" fill-rule="nonzero">
            <path d="M65.307,48.927 L72.564,48.927 L72.564,0 L65.307,0 L65.307,48.927 Z M75.102,48.927 L81.996,48.927 L81.996,29.14 C83.52,23.515 87.584,19.178 92.664,19.178 C96.8,19.178 99.05,21.957 99.05,26.632 L99.05,48.927 L106.016,48.927 L106.016,26.768 C106.016,16.468 98.324,14.231 93.97,14.231 C87.149,14.231 83.158,19.178 82.214,20.737 L81.779,20.737 L81.779,14.909 L74.74,14.909 C75.03,16.874 75.102,19.043 75.102,20.737 L75.102,48.927 Z M137.003,48.927 C136.495,47.097 136.567,44.861 136.567,43.303 L136.567,26.361 C136.567,17.891 130.326,13.96 122.126,13.96 C113.563,13.96 108.483,18.839 107.105,24.803 L114.434,24.803 C114.216,21.618 116.901,18.772 122.126,18.772 C127.351,18.772 130.181,21.482 130.181,26.361 L130.181,30.021 C126.988,29.14 123.505,28.462 119.151,28.53 C111.386,28.733 106.379,33.138 106.379,39.44 C106.379,45.403 110.588,49.808 117.772,49.808 C122.634,49.808 126.916,47.64 130.036,44.59 L130.399,44.59 C130.399,45.403 130.326,46.352 130.254,47.369 L130.109,48.927 L137.003,48.927 Z M130.036,39.914 C128.294,41.744 124.448,44.929 120.094,44.929 C115.45,44.929 113.055,42.828 113.055,39.101 C113.055,35.51 115.813,33.002 120.53,32.935 C123.795,32.867 127.206,33.341 130.036,33.883 L130.036,39.914 Z M145.42,0.001 L138.599,0.001 L138.599,43.912 C138.599,45.471 138.526,47.572 138.454,48.927 L144.622,48.927 C144.694,47.504 144.694,45.471 144.694,43.912 L145.13,43.912 C147.67,47.436 150.863,49.537 155.725,49.537 C165.957,49.537 171.69,41.202 171.69,31.783 C171.69,21.957 166.102,14.028 156.523,14.028 C150.064,14.028 146.799,18.026 145.783,19.517 L145.347,19.517 C145.347,19.043 145.347,18.568 145.42,18.094 L145.42,14.909 L145.42,0.001 Z M164.578,31.783 C164.578,39.44 161.24,44.59 154.564,44.59 C149.484,44.59 145.783,39.711 145.42,36.187 L145.42,27.92 C145.638,24.193 149.194,18.907 154.926,18.907 C161.603,18.907 164.578,24.735 164.578,31.783 L164.578,31.783 Z M172.052,48.927 L178.873,48.927 L178.873,14.909 L172.052,14.909 L172.052,48.927 Z M171.036,4.134 C171.036,6.574 172.923,8.2 175.463,8.2 C178.003,8.2 179.962,6.574 179.962,4.134 C179.962,1.695 178.003,0.001 175.463,0.001 C172.923,0.001 171.036,1.695 171.036,4.134 L171.036,4.134 Z M177.785,19.788 L183.59,19.788 L183.59,39.033 C183.59,45.607 187.509,49.537 194.548,49.537 C197.088,49.537 199.969,48.633 201.751,47.263 L200.644,42.828 C199.555,43.303 197.378,43.845 195.346,43.845 C191.936,43.845 190.339,42.015 190.339,38.966 L190.339,19.788 L200.644,19.788 L200.644,14.909 L190.339,14.909 L190.339,4.744 L184.969,4.744 L183.736,14.909 L177.785,14.909 L177.785,19.788 Z M228.727,48.927 C228.219,47.097 228.292,44.861 228.292,43.303 L228.292,26.361 C228.292,17.891 222.051,13.96 213.851,13.96 C205.288,13.96 200.208,18.839 198.829,24.803 L206.159,24.803 C205.941,21.618 208.626,18.772 213.851,18.772 C219.076,18.772 221.906,21.482 221.906,26.361 L221.906,30.021 C218.713,29.14 215.23,28.462 210.876,28.53 C203.111,28.733 198.104,33.138 198.104,39.44 C198.104,45.403 202.313,49.808 209.497,49.808 C214.359,49.808 218.64,47.64 221.761,44.59 L222.124,44.59 C222.124,45.403 222.051,46.352 221.979,47.369 L221.833,48.927 L228.727,48.927 Z M221.761,39.914 C220.019,41.744 216.173,44.929 211.819,44.929 C207.175,44.929 204.78,42.828 204.78,39.101 C204.78,35.51 207.537,33.002 212.254,32.935 C215.52,32.867 218.931,33.341 221.761,33.883 L221.761,39.914 Z" id="Fill-1"></path>
            <path d="M0,49.809 L53.087,49.809 L53.087,0.001 L0,0.001 L0,49.809 Z M46.849,27.683 C45.221,33.666 42.842,32.578 38.209,38.235 C33.576,43.892 24.561,44.98 18.3,44.653 C12.04,44.327 10.036,37.582 10.036,33.666 C10.036,29.749 8.033,26.595 6.655,24.201 C5.278,21.808 5.153,19.632 7.657,16.151 C10.161,12.67 17.549,17.565 17.549,17.565 C21.346,19.65 24.185,18.109 26.063,13.323 C27.942,8.536 28.317,5.707 37.583,5.055 C46.849,4.402 48.477,21.699 46.849,27.683 L46.849,27.683 Z" id="Fill-3"></path>
        </g>
    </g>
</svg>