<?xml version="1.0" encoding="UTF-8"?>
<svg width="230px" height="51px" viewBox="0 0 230 51" version="1.1" xmlns="http://www.w3.org/2000/svg" xmlns:xlink="http://www.w3.org/1999/xlink">
    <title>Logotipo INABITA_alta</title>
    <g id="Logotipo-INABITA_alta" stroke="none" stroke-width="1" fill="none" fill-rule="evenodd">
        <path d="M65.676,49.5424 L72.933,49.5424 L72.933,0.6154 L65.676,0.6154 L65.676,49.5424 Z M75.471,49.5424 L82.365,49.5424 L82.365,29.7554 C83.889,24.1304 87.953,19.7934 93.033,19.7934 C97.169,19.7934 99.419,22.5724 99.419,27.2474 L99.419,49.5424 L106.385,49.5424 L106.385,27.3834 C106.385,17.0834 98.693,14.8464 94.339,14.8464 C87.518,14.8464 83.527,19.7934 82.583,21.3524 L82.148,21.3524 L82.148,15.5244 L75.109,15.5244 C75.399,17.4894 75.471,19.6584 75.471,21.3524 L75.471,49.5424 Z M137.372,49.5424 C136.864,47.7124 136.936,45.4764 136.936,43.9184 L136.936,26.9764 C136.936,18.5064 130.695,14.5754 122.495,14.5754 C113.932,14.5754 108.852,19.4544 107.474,25.4184 L114.803,25.4184 C114.585,22.2334 117.27,19.3874 122.495,19.3874 C127.72,19.3874 130.55,22.0974 130.55,26.9764 L130.55,30.6364 C127.357,29.7554 123.874,29.0774 119.52,29.1454 C111.755,29.3484 106.748,33.7534 106.748,40.0554 C106.748,46.0184 110.957,50.4234 118.141,50.4234 C123.003,50.4234 127.285,48.2554 130.405,45.2054 L130.768,45.2054 C130.768,46.0184 130.695,46.9674 130.623,47.9844 L130.478,49.5424 L137.372,49.5424 Z M130.405,40.5294 C128.663,42.3594 124.817,45.5444 120.463,45.5444 C115.819,45.5444 113.424,43.4434 113.424,39.7164 C113.424,36.1254 116.182,33.6174 120.899,33.5504 C124.164,33.4824 127.575,33.9564 130.405,34.4984 L130.405,40.5294 Z M145.789,0.6164 L138.968,0.6164 L138.968,44.5274 C138.968,46.0864 138.895,48.1874 138.823,49.5424 L144.991,49.5424 C145.063,48.1194 145.063,46.0864 145.063,44.5274 L145.499,44.5274 C148.039,48.0514 151.232,50.1524 156.094,50.1524 C166.326,50.1524 172.059,41.8174 172.059,32.3984 C172.059,22.5724 166.471,14.6434 156.892,14.6434 C150.433,14.6434 147.168,18.6414 146.152,20.1324 L145.716,20.1324 C145.716,19.6584 145.716,19.1834 145.789,18.7094 L145.789,15.5244 L145.789,0.6164 Z M164.947,32.3984 C164.947,40.0554 161.609,45.2054 154.933,45.2054 C149.853,45.2054 146.152,40.3264 145.789,36.8024 L145.789,28.5354 C146.007,24.8084 149.563,19.5224 155.295,19.5224 C161.972,19.5224 164.947,25.3504 164.947,32.3984 L164.947,32.3984 Z M172.421,49.5424 L179.242,49.5424 L179.242,15.5244 L172.421,15.5244 L172.421,49.5424 Z M171.405,4.7494 C171.405,7.1894 173.292,8.8154 175.832,8.8154 C178.372,8.8154 180.331,7.1894 180.331,4.7494 C180.331,2.3104 178.372,0.6164 175.832,0.6164 C173.292,0.6164 171.405,2.3104 171.405,4.7494 L171.405,4.7494 Z M178.154,20.4034 L183.959,20.4034 L183.959,39.6484 C183.959,46.2224 187.878,50.1524 194.917,50.1524 C197.457,50.1524 200.338,49.2484 202.12,47.8784 L201.013,43.4434 C199.924,43.9184 197.747,44.4604 195.715,44.4604 C192.305,44.4604 190.708,42.6304 190.708,39.5814 L190.708,20.4034 L201.013,20.4034 L201.013,15.5244 L190.708,15.5244 L190.708,5.3594 L185.338,5.3594 L184.105,15.5244 L178.154,15.5244 L178.154,20.4034 Z M229.096,49.5424 C228.588,47.7124 228.661,45.4764 228.661,43.9184 L228.661,26.9764 C228.661,18.5064 222.42,14.5754 214.22,14.5754 C205.657,14.5754 200.577,19.4544 199.198,25.4184 L206.528,25.4184 C206.31,22.2334 208.995,19.3874 214.22,19.3874 C219.445,19.3874 222.275,22.0974 222.275,26.9764 L222.275,30.6364 C219.082,29.7554 215.599,29.0774 211.245,29.1454 C203.48,29.3484 198.473,33.7534 198.473,40.0554 C198.473,46.0184 202.682,50.4234 209.866,50.4234 C214.728,50.4234 219.009,48.2554 222.13,45.2054 L222.493,45.2054 C222.493,46.0184 222.42,46.9674 222.348,47.9844 L222.202,49.5424 L229.096,49.5424 Z M222.13,40.5294 C220.388,42.3594 216.542,45.5444 212.188,45.5444 C207.544,45.5444 205.149,43.4434 205.149,39.7164 C205.149,36.1254 207.906,33.6174 212.623,33.5504 C215.889,33.4824 219.3,33.9564 222.13,34.4984 L222.13,40.5294 Z" id="Fill-1" fill="#1A1919"></path>
        <path d="M0.369,50.4244 L53.456,50.4244 L53.456,0.6164 L0.369,0.6164 L0.369,50.4244 Z M47.218,28.2984 C45.59,34.2814 43.211,33.1934 38.578,38.8504 C33.945,44.5074 24.93,45.5954 18.669,45.2684 C12.409,44.9424 10.405,38.1974 10.405,34.2814 C10.405,30.3644 8.402,27.2104 7.024,24.8164 C5.647,22.4234 5.522,20.2474 8.026,16.7664 C10.53,13.2854 17.918,18.1804 17.918,18.1804 C21.715,20.2654 24.554,18.7244 26.432,13.9384 C28.311,9.1514 28.686,6.3224 37.952,5.6704 C47.218,5.0174 48.846,22.3144 47.218,28.2984 L47.218,28.2984 Z" id="Fill-3" fill="#1A1919"></path>
        <path d="M47.218,28.2984 C45.59,34.2814 43.211,33.1934 38.578,38.8504 C33.945,44.5074 24.93,45.5954 18.669,45.2684 C12.409,44.9424 10.405,38.1974 10.405,34.2814 C10.405,30.3644 8.402,27.2104 7.024,24.8164 C5.647,22.4234 5.522,20.2474 8.026,16.7664 C10.53,13.2854 17.918,18.1804 17.918,18.1804 C21.715,20.2654 24.554,18.7244 26.432,13.9384 C28.311,9.1514 28.686,6.3224 37.952,5.6704 C47.218,5.0174 48.846,22.3144 47.218,28.2984 L47.218,28.2984 Z" id="Path" fill="#FFFFFF"></path>
    </g>
</svg>